<?xml version="1.0" encoding="UTF-8" standalone="no"?><!DOCTYPE svg PUBLIC "-//W3C//DTD SVG 1.1//EN" "http://www.w3.org/Graphics/SVG/1.1/DTD/svg11.dtd"><svg width="100%" height="100%" viewBox="0 0 407 407" version="1.1" xmlns="http://www.w3.org/2000/svg" xmlns:xlink="http://www.w3.org/1999/xlink" xml:space="preserve" xmlns:serif="http://www.serif.com/" style="fill-rule:evenodd;clip-rule:evenodd;stroke-linejoin:round;stroke-miterlimit:2;"><g transform="matrix(1,0,0,1,-310.66,-585.327)"><g transform="matrix(1,0,0,1,289.278,232.333)"><g id="Capa-1"><g id="Capa-11" serif:id="Capa-1"><g><path d="M67.328,352.994L381.936,352.994C407.312,352.994 427.882,373.564 427.882,398.94L427.882,713.548C427.882,738.923 407.312,759.494 381.936,759.494L67.328,759.494C41.953,759.494 21.382,738.923 21.382,713.548L21.382,398.94C21.382,373.564 41.953,352.994 67.328,352.994Z" style="fill:white;"/><g transform="matrix(1,0,0,1,-289.278,-232.333)"><path d="M522.695,585.327L433.848,661.263L599.142,856.673L717.16,753.886L717.16,945.881C717.16,971.256 696.59,991.827 671.214,991.827L531.258,991.827L360.357,788.715L331.41,813.071L481.817,991.827L356.606,991.827C331.231,991.827 310.66,971.256 310.66,945.881L310.66,631.273C310.66,605.897 331.231,585.327 356.606,585.327L522.695,585.327ZM582.642,585.327L671.214,585.327C696.59,585.327 717.16,605.897 717.16,631.273L717.16,697.672L602.729,799.902L488.294,666.426L582.642,585.327Z"/></g></g><g id="Capa-12" serif:id="Capa-1"></g></g></g></g></g></svg>